<?xml version="1.0" encoding="UTF-8"?>
<!DOCTYPE svg PUBLIC "-//W3C//DTD SVG 1.1//EN" "http://www.w3.org/Graphics/SVG/1.1/DTD/svg11.dtd">
<svg xmlns="http://www.w3.org/2000/svg" version="1.1" width="512px" height="512px" style="shape-rendering:geometricPrecision; text-rendering:geometricPrecision; image-rendering:optimizeQuality; fill-rule:evenodd; clip-rule:evenodd" xmlns:xlink="http://www.w3.org/1999/xlink">
<g><path style="opacity:0.933" fill="#fefffe" d="M 207.5,-0.5 C 214.833,-0.5 222.167,-0.5 229.5,-0.5C 239.665,2.25612 248.332,7.58946 255.5,15.5C 262.668,7.58946 271.335,2.25612 281.5,-0.5C 288.833,-0.5 296.167,-0.5 303.5,-0.5C 320.566,3.35131 336.899,9.51797 352.5,18C 365.833,26.6667 379.167,35.3333 392.5,44C 412.604,60.1492 418.937,80.6492 411.5,105.5C 455.434,120.27 473.101,150.437 464.5,196C 485.41,218.945 490.577,245.111 480,274.5C 478.088,278.66 475.921,282.66 473.5,286.5C 492.202,319.485 488.868,349.985 463.5,378C 459.521,381.656 455.188,384.822 450.5,387.5C 451.549,429.099 432.883,457.765 394.5,473.5C 381.475,494.532 362.809,507.198 338.5,511.5C 330.167,511.5 321.833,511.5 313.5,511.5C 287.842,506.329 268.509,492.329 255.5,469.5C 242.491,492.329 223.158,506.329 197.5,511.5C 189.167,511.5 180.833,511.5 172.5,511.5C 148.191,507.198 129.525,494.532 116.5,473.5C 78.1173,457.765 59.4506,429.099 60.5,387.5C 28.4216,365.431 18.5883,335.764 31,298.5C 32.9125,294.34 35.0791,290.34 37.5,286.5C 21.1045,258.839 21.6045,231.506 39,204.5C 41.3824,201.573 43.8824,198.739 46.5,196C 37.8994,150.437 55.566,120.27 99.5,105.5C 92.0631,80.6492 98.3964,60.1492 118.5,44C 131.833,35.3333 145.167,26.6667 158.5,18C 173.949,9.13335 190.282,2.96668 207.5,-0.5 Z M 213.5,16.5 C 229.94,15.1214 240.774,22.1214 246,37.5C 246.833,74.5045 246.667,111.505 245.5,148.5C 236.068,141.781 225.735,139.614 214.5,142C 210.213,147.357 210.547,152.357 215.5,157C 231.277,157.118 241.444,164.618 246,179.5C 246.667,246.833 246.667,314.167 246,381.5C 233.93,366.552 218.43,358.052 199.5,356C 194.931,358.541 193.431,362.375 195,367.5C 195.785,369.286 196.951,370.786 198.5,372C 224.774,379.605 240.607,396.772 246,423.5C 248.308,454.507 235.475,476.673 207.5,490C 172.444,500.096 145.778,489.43 127.5,458C 100.447,449.951 84.2802,432.117 79,404.5C 78.8232,395.826 78.8232,387.16 79,378.5C 74.0928,374.629 68.9261,371.129 63.5,368C 42.425,348.86 37.925,326.36 50,300.5C 64.9573,313.154 82.124,318.32 101.5,316C 106.991,309.469 105.991,304.136 98.5,300C 71.5508,299.036 53.7175,285.87 45,260.5C 39.97,237.923 46.3033,219.256 64,204.5C 64.3333,203.5 64.6667,202.5 65,201.5C 63.2851,193.118 61.7851,184.618 60.5,176C 64.0195,143.814 81.8528,125.98 114,122.5C 139.516,124.419 156.516,137.419 165,161.5C 165.899,168.275 167.232,174.941 169,181.5C 173.667,185.5 178.333,185.5 183,181.5C 185.252,146.521 170.085,122.354 137.5,109C 131.214,107.286 124.881,105.786 118.5,104.5C 110.94,88.4567 113.274,73.9567 125.5,61C 149.44,45.8587 168.773,50.5253 183.5,75C 194.098,78.4046 198.598,74.5713 197,63.5C 189.477,49.9847 178.311,40.8181 163.5,36C 179.078,26.3649 195.745,19.8649 213.5,16.5 Z M 286.5,16.5 C 308.644,17.2699 328.977,23.7699 347.5,36C 332.689,40.8181 321.523,49.9847 314,63.5C 312.402,74.5713 316.902,78.4046 327.5,75C 340.374,52.5956 358.374,46.929 381.5,58C 397.048,70.6923 400.715,86.1923 392.5,104.5C 356.32,109.516 334.487,129.849 327,165.5C 326.104,170.949 326.437,176.282 328,181.5C 333.281,185.699 338.281,185.366 343,180.5C 343.996,151.646 358.162,132.813 385.5,124C 413.187,120.093 433.354,130.593 446,155.5C 448.516,162.108 450.016,168.941 450.5,176C 449.215,184.618 447.715,193.118 446,201.5C 446.333,202.5 446.667,203.5 447,204.5C 469.154,224.461 473.487,247.794 460,274.5C 448.718,291.228 432.884,299.728 412.5,300C 405.009,304.136 404.009,309.469 409.5,316C 428.876,318.32 446.043,313.154 461,300.5C 473.073,326.368 468.573,348.868 447.5,368C 442.074,371.129 436.907,374.629 432,378.5C 436.484,405.448 428.65,427.948 408.5,446C 400.837,451.331 392.504,455.331 383.5,458C 361.642,493.839 331.642,502.839 293.5,485C 277.988,474.479 268.488,459.979 265,441.5C 264.333,342.167 264.333,242.833 265,143.5C 267.246,134.815 272.413,128.648 280.5,125C 285.811,123.482 291.145,122.148 296.5,121C 300.5,116.333 300.5,111.667 296.5,107C 285.053,104.318 274.553,106.485 265,113.5C 264.333,88.1667 264.333,62.8333 265,37.5C 268.097,26.235 275.264,19.235 286.5,16.5 Z"/></g>
<g><path style="opacity:0.929" fill="#fefffe" d="M 410.5,158.5 C 419.5,156.841 423.833,160.508 423.5,169.5C 421.353,197.299 408.019,217.799 383.5,231C 376.577,233.752 369.577,236.085 362.5,238C 369.158,255.339 381.824,264.339 400.5,265C 405.155,267.897 406.655,272.063 405,277.5C 403.833,278.667 402.667,279.833 401.5,281C 380.396,282.696 363.896,274.863 352,257.5C 348.668,250.992 345.835,244.326 343.5,237.5C 326.882,234.775 312.715,227.442 301,215.5C 298.139,207.897 300.639,203.23 308.5,201.5C 310.299,201.577 311.966,202.077 313.5,203C 335.997,223.454 359.997,225.454 385.5,209C 399.58,196.784 406.747,181.284 407,162.5C 408.376,161.295 409.542,159.962 410.5,158.5 Z"/></g>
<g><path style="opacity:0.93" fill="#fefffe" d="M 109.5,167.5 C 112.518,167.335 115.518,167.502 118.5,168C 119.333,168.833 120.167,169.667 121,170.5C 122.007,195.471 133.507,213.637 155.5,225C 177.841,233.115 197.508,228.781 214.5,212C 225.097,208.595 229.597,212.428 228,223.5C 216.487,236.658 201.987,244.158 184.5,246C 177.152,275.833 158.152,290.5 127.5,290C 120.833,284.667 120.833,279.333 127.5,274C 146.964,273.52 159.964,264.187 166.5,246C 132.79,239.956 112.623,220.123 106,186.5C 105.333,181.5 105.333,176.5 106,171.5C 107.376,170.295 108.542,168.962 109.5,167.5 Z"/></g>
<g><path style="opacity:0.928" fill="#fefffe" d="M 290.5,290.5 C 320.996,291.858 342.829,306.192 356,333.5C 359.773,342.804 361.606,352.471 361.5,362.5C 367.648,360.451 373.148,361.451 378,365.5C 380.644,371.912 378.811,376.412 372.5,379C 348.089,379.753 330.923,391.253 321,413.5C 318.561,421.37 316.894,429.37 316,437.5C 311,442.833 306,442.833 301,437.5C 299.167,404.842 313,381.509 342.5,367.5C 344.468,341.267 333.468,322.767 309.5,312C 302.357,309.638 295.023,308.305 287.5,308C 282.845,305.103 281.345,300.937 283,295.5C 284.913,292.72 287.413,291.053 290.5,290.5 Z"/></g>
<g><path style="opacity:0.928" fill="#fefffe" d="M 186.5,308.5 C 190.637,308.146 194.637,308.646 198.5,310C 202.613,313.509 203.446,317.676 201,322.5C 199.681,324.487 197.848,325.654 195.5,326C 169.813,327.089 152.313,339.589 143,363.5C 140.845,370.366 140.178,377.366 141,384.5C 171.26,398.703 185.26,422.37 183,455.5C 177.716,459.728 172.716,459.395 168,454.5C 165.173,418.34 145.673,398.84 109.5,396C 104.547,391.357 104.213,386.357 108.5,381C 113.036,379.621 117.703,379.121 122.5,379.5C 125.736,339.278 147.069,315.611 186.5,308.5 Z"/></g>
</svg>
