<svg xmlns="http://www.w3.org/2000/svg" fill="none" viewBox="0 0 120 120"><g fill="#ffffff"><path clip-rule="evenodd" d="m44.8323 39.9829c-1.8317 0-3.5668.444-5.0952 1.2309-1.5283-.7869-3.2635-1.2309-5.0951-1.2309-6.0754 0-11.0777 4.8817-11.0777 10.9983 0 3.348 1.5104 6.339 3.861 8.3443 2.6945 2.644 5.402 5.2736 8.0967 7.9177 2.3441 2.3003 6.114 2.3003 8.4581 0 2.5874-2.5388 5.2972-4.9894 7.7522-7.6576 2.5309-2.0023 4.1776-5.1076 4.1776-8.6044 0-6.1166-5.0022-10.9983-11.0776-10.9983zm-1.8975 8.6374c.5201-.3981 1.1725-.6374 1.8975-.6374 1.7424 0 3.0776 1.3848 3.0776 2.9983 0 .9371-.4383 1.7845-1.1623 2.347 0 0-4.7165 4.6193-6.9966 6.8567-2.3287-2.2852-7.0925-6.9111-7.0925-6.9111-.6833-.5626-1.0942-1.3845-1.0942-2.2926 0-1.6135 1.3353-2.9983 3.0777-2.9983.7249 0 1.3773.2393 1.8974.6374 1.8812 1.4399 4.5143 1.4399 6.3954 0z" fill-rule="evenodd" fill="#898989"/><path d="m27 89c2.7614 0 5-2.2386 5-5s-2.2386-5-5-5-5 2.2386-5 5 2.2386 5 5 5z" fill="#898989"/><path d="m52 30c2.7614 0 5-2.2386 5-5s-2.2386-5-5-5-5 2.2386-5 5 2.2386 5 5 5z" fill="#898989"/><path clip-rule="evenodd" d="m69.2995 67.923c-1.3562-1.8128-1.325-4.3108.076-6.0892l8.5461-10.8482c2.0019-2.5411 5.8534-2.5411 7.8552 0l8.5461 10.8482c1.4011 1.7784 1.4322 4.2764.076 6.0892l-8.546 11.4237c-1.9998 2.6732-6.0075 2.6732-8.0073 0zm12.5497 3.4205-4.7642-6.3684 4.7642-6.0475 4.7642 6.0475z" fill-rule="evenodd" fill="#898989"/><path d="m98 37c0 2.7614-2.2386 5-5 5s-5-2.2386-5-5 2.2386-5 5-5 5 2.2386 5 5z" fill="#898989"/><path clip-rule="evenodd" d="m22 10c-5.5228 0-10 4.4771-10 10v69c0 5.5229 4.4772 10 10 10h31v2c0 5.523 4.4772 10 10 10h35c5.523 0 10-4.477 10-10v-69c0-5.5228-4.477-10-10-10h-31v-2c0-5.5228-4.4772-10-10-10zm35 8h-35c-1.1046 0-2 .8954-2 2v69c0 1.1046.8954 2 2 2h35c1.1046 0 2-.8954 2-2v-69c0-1.1046-.8954-2-2-2zm4 83v-2.8321c-.0357.0156-.0716.031-.1075.0462.7883-.3334 1.525-.7651 2.1947-1.2796.4376 2.3148 2.4708 4.0655 4.9128 4.0655 2.7614 0 5-2.2386 5-5s-2.2386-5-5-5c-.4253 0-.8382.0531-1.2324.153.1522-.6934.2324-1.4139.2324-2.153v-59h31c1.1046 0 2 .8954 2 2v69c0 1.105-.8954 2-2 2h-35c-1.1046 0-2-.895-2-2z" fill-rule="evenodd" fill="#898989"/></g></svg>