<?xml version="1.0" encoding="UTF-8"?>
<!DOCTYPE svg PUBLIC "-//W3C//DTD SVG 1.1//EN" "http://www.w3.org/Graphics/SVG/1.1/DTD/svg11.dtd">
<svg xmlns="http://www.w3.org/2000/svg" version="1.1" width="1024px" height="1024px" style="shape-rendering:geometricPrecision; text-rendering:geometricPrecision; image-rendering:optimizeQuality; fill-rule:evenodd; clip-rule:evenodd" xmlns:xlink="http://www.w3.org/1999/xlink">
<g><path style="opacity:1" fill="#000000" d="M 308.5,169.5 C 447.849,169.02 587.182,169.52 726.5,171C 799.335,180.895 854.168,217.395 891,280.5C 902.048,301.309 909.714,323.309 914,346.5C 936.721,475.772 959.054,605.105 981,734.5C 981.199,782.285 958.699,813.785 913.5,829C 882.648,836.035 854.981,829.702 830.5,810C 781.167,760.667 731.833,711.333 682.5,662C 568.5,661.333 454.5,661.333 340.5,662C 291.167,711.333 241.833,760.667 192.5,810C 163.738,832.626 132.071,837.626 97.5,825C 59.2232,806.631 40.7232,776.131 42,733.5C 64.3423,602.446 87.009,471.446 110,340.5C 124.483,277.644 159.317,229.811 214.5,197C 243.97,181.005 275.303,171.839 308.5,169.5 Z"/></g>
<g><path style="opacity:1" fill="#43a12c" d="M 291.5,275.5 C 310.167,275.5 328.833,275.5 347.5,275.5C 347.5,302.167 347.5,328.833 347.5,355.5C 374.167,355.5 400.833,355.5 427.5,355.5C 427.5,374.167 427.5,392.833 427.5,411.5C 400.833,411.5 374.167,411.5 347.5,411.5C 347.5,438.167 347.5,464.833 347.5,491.5C 328.833,491.5 310.167,491.5 291.5,491.5C 291.5,464.833 291.5,438.167 291.5,411.5C 264.833,411.5 238.167,411.5 211.5,411.5C 211.5,392.833 211.5,374.167 211.5,355.5C 238.167,355.5 264.833,355.5 291.5,355.5C 291.5,328.833 291.5,302.167 291.5,275.5 Z"/></g>
<g><path style="opacity:1" fill="#429f2c" d="M 695.5,275.5 C 725.123,274.951 737.956,289.284 734,318.5C 724.822,337.669 709.988,344.169 689.5,338C 671.428,327.334 666.261,312.167 674,292.5C 679.242,284.308 686.409,278.641 695.5,275.5 Z"/></g>
<g><path style="opacity:1" fill="#429f2c" d="M 620.5,350.5 C 647.843,349.344 661.01,362.344 660,389.5C 655.139,406.185 643.972,414.852 626.5,415.5C 606.58,413.035 596.246,401.701 595.5,381.5C 596.964,365.547 605.298,355.214 620.5,350.5 Z"/></g>
<g><path style="opacity:1" fill="#429f2c" d="M 770.5,350.5 C 800.123,349.951 812.956,364.284 809,393.5C 799.826,412.666 784.993,419.166 764.5,413C 746.428,402.334 741.261,387.167 749,367.5C 754.242,359.308 761.409,353.641 770.5,350.5 Z"/></g>
<g><path style="opacity:1" fill="#429f2c" d="M 695.5,425.5 C 725.123,424.951 737.956,439.284 734,468.5C 724.826,487.666 709.993,494.166 689.5,488C 671.428,477.334 666.261,462.167 674,442.5C 679.242,434.308 686.409,428.641 695.5,425.5 Z"/></g>
</svg>
