<?xml version="1.0" encoding="UTF-8"?>
<svg id="_Слой_3" data-name="Слой 3" xmlns="http://www.w3.org/2000/svg" viewBox="0 0 698.03 698.03">
  <defs>
    <style>
      .cls-1 {
        fill: #31bdea;
        font-size: 50px;
        stroke: #008197;
      }

      .cls-1, .cls-2 {
        stroke-miterlimit: 10;
      }

      .cls-1, .cls-3 {
        font-family: BalsamiqSans-Regular, 'Balsamiq Sans';
      }

      .cls-2 {
        fill: #fff;
        stroke: #000;
        stroke-width: 2px;
      }

      .cls-4 {
        letter-spacing: -.02em;
      }

      .cls-3 {
        font-size: 70px;
      }
    </style>
  </defs>
  <line class="cls-2" x1="175.65" y1="46.94" x2="191.01" y2="73.06"/>
  <line class="cls-2" x1="524.98" y1="46.94" x2="509.63" y2="73.06"/>
  <line class="cls-2" x1="175.34" y1="651.52" x2="190.69" y2="625.4"/>
  <line class="cls-2" x1="524.66" y1="651.52" x2="509.31" y2="625.4"/>
  <line class="cls-2" x1="626.59" y1="508.96" x2="651.06" y2="523.25"/>
  <line class="cls-2" x1="72.84" y1="509.26" x2="48.37" y2="523.56"/>
  <line class="cls-2" x1="626.87" y1="189.62" x2="651.34" y2="175.32"/>
  <line class="cls-2" x1="73.13" y1="189.31" x2="48.66" y2="175.01"/>
  <line class="cls-2" x1="698.03" y1="349.9" x2="668.47" y2="349.9"/>
  <line class="cls-2" x1="29.56" y1="349.9" y2="349.9"/>
  <line class="cls-2" x1="349.64" y1="698.03" x2="349.64" y2="668.47"/>
  <line class="cls-2" x1="349.64" y1="29.56" x2="349.64"/>
  <text class="cls-3" transform="translate(40.72 373.98) scale(.97 1)"><tspan x="0" y="0">9</tspan></text>
  <text class="cls-3" transform="translate(328.22 657.4) scale(.97 1)"><tspan x="0" y="0">6</tspan></text>
  <text class="cls-3" transform="translate(313 85) scale(1.01 1)"><tspan x="0" y="0">12</tspan></text>
  <text class="cls-3" transform="translate(616.69 374.29) scale(.97 1)"><tspan x="0" y="0">3</tspan></text>
  <text class="cls-1" transform="translate(235.81 218.27)"><tspan x="0" y="0">B</tspan><tspan class="cls-4" x="34.25" y="0">r</tspan><tspan x="51.3" y="0">ainRIM</tspan></text>
</svg>